<svg viewBox="0 0 760 660" width="760" xmlns="http://www.w3.org/2000/svg" font-family="-apple-system,'PingFang SC',sans-serif">
  <rect width="760" height="660" fill="#FAFAF8"/>

  <!-- 左：当前主题轨迹页 -->
  <rect x="20" y="10" width="320" height="620" rx="28" fill="#fff" stroke="#B4B2A9" stroke-width="0.7"/>
  <text x="180" y="34" text-anchor="middle" font-size="11" fill="#888780">9:41</text>
  <text x="40" y="62" font-size="13" fill="#185FA5">‹ 聚合消息</text>
  <text x="40" y="102" font-size="20" font-weight="700" fill="#854F0B">#孩子英语</text>
  <text x="320" y="102" text-anchor="end" font-size="12" fill="#888780">3 条</text>

  <rect x="40" y="122" width="280" height="112" rx="10" fill="#fff" stroke="#D3D1C7" stroke-width="0.8"/>
  <text x="54" y="150" font-size="15" font-weight="600" fill="#2C2C2A">学到第50本绘本</text>
  <text x="54" y="176" font-size="12" fill="#5F5E5A">孩子英语学到第50本绘本了，</text>
  <text x="54" y="196" font-size="12" fill="#5F5E5A">今晚自己捧着读完一整本。</text>
  <text x="54" y="220" font-size="11" fill="#888780" font-family="Menlo,monospace">今天 18:05:52</text>

  <rect x="40" y="246" width="280" height="88" rx="10" fill="#fff" stroke="#D3D1C7" stroke-width="0.8"/>
  <text x="54" y="274" font-size="15" fill="#2C2C2A">学到第30本绘本</text>
  <text x="54" y="300" font-size="12" fill="#5F5E5A">英语绘本已经读到第30本了</text>
  <text x="54" y="322" font-size="11" fill="#888780" font-family="Menlo,monospace">08-16 20:12:08</text>

  <rect x="40" y="346" width="280" height="88" rx="10" fill="#fff" stroke="#D3D1C7" stroke-width="0.8"/>
  <text x="54" y="374" font-size="15" fill="#2C2C2A">开始读牛津树第4级</text>
  <text x="54" y="400" font-size="12" fill="#5F5E5A">今天开始读牛津树第四级</text>
  <text x="54" y="422" font-size="11" fill="#888780" font-family="Menlo,monospace">08-09 21:40:17</text>

  <!-- 页面跳转关系 -->
  <path d="M354 302 L399 302" fill="none" stroke="#185FA5" stroke-width="1.8"/>
  <path d="M391 295 L399 302 L391 309" fill="none" stroke="#185FA5" stroke-width="1.8" stroke-linecap="round" stroke-linejoin="round"/>
  <text x="376" y="286" text-anchor="middle" font-size="11" fill="#185FA5">点击卡片</text>

  <!-- 右：当前用户原声详情页 -->
  <rect x="420" y="10" width="320" height="620" rx="28" fill="#fff" stroke="#B4B2A9" stroke-width="0.7"/>
  <text x="580" y="34" text-anchor="middle" font-size="11" fill="#888780">9:41</text>
  <text x="440" y="62" font-size="13" fill="#185FA5">‹ 用户原声</text>

  <!-- 当前实现的铅笔入口 -->
  <g transform="translate(698,48)" fill="none" stroke="#185FA5" stroke-width="1.6" stroke-linecap="round" stroke-linejoin="round">
    <path d="M0 13 L3 4 L10 -3 L15 2 L8 9 Z"/>
    <path d="M3 4 L8 9"/>
  </g>

  <text x="440" y="100" font-size="12" fill="#888780" font-family="Menlo,monospace">今天 18:05:52</text>
  <text x="440" y="142" font-size="20" font-weight="600" fill="#2C2C2A">学到第50本绘本</text>
  <text x="440" y="184" font-size="15" fill="#5F5E5A">孩子英语学到第50本绘本了，</text>
  <text x="440" y="212" font-size="15" fill="#5F5E5A">今晚自己捧着读完一整本。</text>

  <text x="580" y="580" text-anchor="middle" font-size="12" fill="#A32D2D">删除这条记录</text>

  <text x="180" y="650" text-anchor="middle" font-size="12" fill="#5F5E5A">主题轨迹页</text>
  <text x="580" y="650" text-anchor="middle" font-size="12" fill="#5F5E5A">用户原声详情页</text>
</svg>
