<svg viewBox="0 0 680 420" width="680" xmlns="http://www.w3.org/2000/svg" font-family="-apple-system,'PingFang SC',sans-serif">
<defs>
  <marker id="arrow" viewBox="0 0 10 10" refX="8" refY="5" markerWidth="6" markerHeight="6" orient="auto-start-reverse">
    <path d="M2 1L8 5L2 9" fill="none" stroke="context-stroke" stroke-width="1.5" stroke-linecap="round" stroke-linejoin="round"/>
  </marker>
</defs>
<rect x="190" y="40" width="300" height="56" rx="8" fill="#E6F1FB" stroke="#378ADD" stroke-width="0.5"/>
<text x="340" y="60" text-anchor="middle" font-size="14" font-weight="500" fill="#0C447C">输入</text>
<text x="340" y="78" text-anchor="middle" font-size="12" fill="#185FA5">首页沉底输入框 · 文字 / 语音</text>
<path d="M340 96 L340 114" fill="none" stroke="#378ADD" stroke-width="1.5" marker-end="url(#arrow)"/>
<rect x="190" y="116" width="300" height="56" rx="8" fill="#E6F1FB" stroke="#378ADD" stroke-width="0.5"/>
<text x="340" y="136" text-anchor="middle" font-size="14" font-weight="500" fill="#0C447C">原文立即落库</text>
<text x="340" y="154" text-anchor="middle" font-size="12" fill="#185FA5">rawText 永存，用户原声展示</text>
<path d="M340 172 L340 190" fill="none" stroke="#378ADD" stroke-width="1.5" marker-end="url(#arrow)"/>
<rect x="190" y="192" width="300" height="56" rx="8" fill="#E6F1FB" stroke="#378ADD" stroke-width="0.5"/>
<text x="340" y="212" text-anchor="middle" font-size="14" font-weight="500" fill="#0C447C">异步理解（&lt;1s，不阻塞）</text>
<text x="340" y="230" text-anchor="middle" font-size="12" fill="#185FA5">意图 · 时间 · 标签 · 聚合主题</text>
<rect x="510" y="192" width="130" height="56" rx="8" fill="#fff" stroke="#888780" stroke-width="0.5" stroke-dasharray="4 3"/>
<text x="575" y="212" text-anchor="middle" font-size="12" fill="#5F5E5A">失败降级：标 pending</text>
<text x="575" y="230" text-anchor="middle" font-size="12" fill="#5F5E5A">联网后补理解</text>
<path d="M490 220 L508 220" fill="none" stroke="#888780" stroke-width="0.5" stroke-dasharray="4 3"/>
<path d="M340 248 L340 266" fill="none" stroke="#378ADD" stroke-width="1.5" marker-end="url(#arrow)"/>
<rect x="190" y="268" width="300" height="56" rx="8" fill="#E6F1FB" stroke="#378ADD" stroke-width="0.5"/>
<text x="340" y="288" text-anchor="middle" font-size="14" font-weight="500" fill="#0C447C">静默归档</text>
<text x="340" y="306" text-anchor="middle" font-size="12" fill="#185FA5">进本周/长期待办 · 挂提醒 · 可检索</text>
<path d="M340 324 L340 342" fill="none" stroke="#BA7517" stroke-width="1.5" marker-end="url(#arrow)"/>
<rect x="190" y="344" width="300" height="56" rx="8" fill="#FAEEDA" stroke="#BA7517" stroke-width="0.5"/>
<text x="340" y="364" text-anchor="middle" font-size="14" font-weight="500" fill="#633806">对的时刻浮现</text>
<text x="340" y="382" text-anchor="middle" font-size="12" fill="#854F0B">早 8 点每日一问 · 到点提醒 · 搜索命中</text>
<path d="M190 372 C 90 372, 90 144, 188 144" fill="none" stroke="#BA7517" stroke-width="1" stroke-dasharray="4 3" marker-end="url(#arrow)"/>
<text x="96" y="252" text-anchor="middle" font-size="12" fill="#854F0B">编辑回写</text>
<text x="96" y="268" text-anchor="middle" font-size="12" fill="#854F0B">主题页手动/AI 改文案</text>
</svg>
